# xmcd
#
# Track frame offsets: 
#        225
#        10330
#        23740
#        32813
#        46279
#        55265
#        66809
#        78642
#        88217
#        99872
#        110807
#        120457
#        131345
#        149926
#        161978
#        175667
#        191001
#        202687
#        225532
#        241076
#        250314
#        266579
#        278874
#        291688
#        304010
#        316425
#        328292
#
# Disc length: 4456 seconds
#
# Revision: 0
# Processed by: cddbd v1.5.1PL0 Copyright (c) Steve Scherf et al.
# Submitted via: ExactAudioCopy v0.95a5
#
DISCID=9111651b
DTITLE=Beatles - Complete Edition CD 6
DYEAR=1966
DGENRE=Oldies
TTITLE0=Doctor Robert
TTITLE1=Tomorrow Never Knows
TTITLE2=And your bird can sing
TTITLE3=I´m only sleeping
TTITLE4=For no one
TTITLE5=Taxman
TTITLE6=Yellow Submarine
TTITLE7=Eleanor Rigby
TTITLE8=She said she said
TTITLE9=I want to tell you
TTITLE10=Good day sunshine
TTITLE11=Here, there and everywhere
TTITLE12=Strawberry fields forever
TTITLE13=When I´m sixty-four
TTITLE14=Penny Lane
TTITLE15=Only a northern song
TTITLE16=Fixing a hole
TTITLE17=A day in the life
TTITLE18=Lucy in the sky with diamonds
TTITLE19=Sgt. Peppers lonely hearts club band
TTITLE20=She´s leaving home
TTITLE21=Lovely Rita
TTITLE22=Getting better
TTITLE23=Good morning, good morning
TTITLE24=With a little help from my friends
TTITLE25=Being for the benefit of Mr. Kite
TTITLE26=Sgt. Peppers lonely hearts club band (Reprise)
EXTD=
EXTT0=
EXTT1=
EXTT2=
EXTT3=
EXTT4=
EXTT5=
EXTT6=
EXTT7=
EXTT8=
EXTT9=
EXTT10=
EXTT11=
EXTT12=
EXTT13=
EXTT14=
EXTT15=
EXTT16=
EXTT17=
EXTT18=
EXTT19=
EXTT20=
EXTT21=
EXTT22=
EXTT23=
EXTT24=
EXTT25=
EXTT26=
PLAYORDER=
